<?xml version="1.0" encoding="UTF-8"?>
<svg id="Layer_1" xmlns="http://www.w3.org/2000/svg" version="1.1" viewBox="0 0 1920 1080">
  <!-- Generator: Adobe Illustrator 30.1.0, SVG Export Plug-In . SVG Version: 2.1.1 Build 136)  -->
  <defs>
    <style>
      .st0, .st1 {
        fill: #fff;
      }

      .st1 {
        font-family: NECARARegular, NECARA;
        font-size: 526.47px;
      }

      .st2 {
        fill: #6b4193;
        opacity: .56;
      }
    </style>
  </defs>
  <circle class="st2" cx="265.11" cy="420.12" r="220.13"/>
  <text class="st1" transform="translate(178.58 730.87)"><tspan x="0" y="0">Inkspire</tspan></text>
  <g>
    <path class="st0" d="M1201.98,783.43c2.22,0,3.98,1.87,3.98,4.21v63.85c0,2.1-1.76,3.98-3.98,3.98s-3.97-1.87-3.97-3.98v-63.85c0-2.34,1.75-4.21,3.97-4.21Z"/>
    <path class="st0" d="M1241.94,801.9c12.75,0,23.28,10.41,23.27,23.27v26.55c0,2.1-1.75,3.74-3.74,3.74s-3.74-1.63-3.74-3.74v-26.55c0-8.66-7.13-15.9-15.79-15.9s-16.02,7.25-16.02,15.9v26.55c0,2.1-1.63,3.74-3.63,3.74-2.1,0-3.74-1.63-3.74-3.74v-26.55c0-12.86,10.52-23.27,23.39-23.27Z"/>
    <path class="st0" d="M1289.86,801.9h22.69c2,0,3.63,1.76,3.63,3.74,0,1.87-1.64,3.63-3.63,3.63h-23.15c-8.77,0-10.76,8.89-2.34,12.16l21.99,8.07c8.89,3.28,11.93,10.41,10.29,16.26-1.53,5.26-6.9,9.7-15.09,9.7h-24.21c-2.1,0-3.74-1.63-3.74-3.74,0-1.98,1.63-3.62,3.74-3.62h24.79c8.54,0,10.64-8.77,2.22-12.16l-21.99-8.18c-8.89-3.16-11.92-10.29-10.29-16.14,1.52-5.26,6.89-9.71,15.08-9.71h0Z"/>
    <path class="st0" d="M1354.96,801.9c14.85,0,26.9,11.93,26.9,26.78s-12.05,26.78-26.9,26.78c-8.19,0-15.44-4.09-19.41-10.4v25.14c0,1.99-1.64,3.62-3.63,3.62s-3.63-1.63-3.63-3.62v-41.52c0-14.85,12.05-26.78,26.66-26.78ZM1354.96,809.15c-10.64,0-19.41,8.77-19.41,19.53s8.77,19.42,19.41,19.42,19.53-8.66,19.53-19.42-8.65-19.53-19.53-19.53Z"/>
    <path class="st0" d="M1395.96,786.82c2.58,0,4.68,2.1,4.68,4.79s-2.1,4.56-4.68,4.56-4.68-1.99-4.68-4.56c0-2.69,2.11-4.79,4.68-4.79ZM1395.96,801.9c1.99,0,3.62,1.76,3.63,3.63v46.19c0,2.1-1.64,3.74-3.63,3.74-2.1,0-3.74-1.63-3.74-3.74v-46.19c0-1.87,1.64-3.63,3.74-3.63Z"/>
    <path class="st0" d="M1435.02,801.9c1.99,0,3.63,1.76,3.63,3.74s-1.63,3.63-3.63,3.63c-8.89,0-16.02,7.25-16.02,15.9v26.78c0,2.1-1.64,3.74-3.63,3.74-2.11,0-3.74-1.63-3.74-3.74v-26.78c0-12.86,10.52-23.27,23.39-23.27Z"/>
    <path class="st0" d="M1467.39,801.9c13.92,0,25.5,10.76,26.43,24.44.7,3.04-.47,5.14-4.09,5.14h-41.28c1.17,9.36,9.24,16.61,18.94,16.61,5.26,0,10.18-2.22,13.68-5.73.82-.7,1.75-1.05,2.58-1.05,1.05,0,1.99.35,2.58,1.05,1.52,1.52,1.52,3.74,0,5.26-4.8,4.79-11.46,7.83-18.83,7.83-14.73,0-26.78-12.05-26.78-26.78s12.04-26.78,26.78-26.78ZM1467.39,809.27c-9.7,0-17.77,7.37-18.94,16.73h37.78c-.94-9.36-9.12-16.73-18.83-16.73Z"/>
    <path class="st0" d="M1501.13,828.68c0-14.85,11.93-26.78,26.67-26.78,8.3,0,15.32,4.21,19.29,10.41v-25.14c0-2.1,1.76-3.74,3.74-3.74,2.1,0,3.86,1.63,3.85,3.74v41.52c0,14.85-12.04,26.78-26.89,26.78s-26.66-11.92-26.66-26.78ZM1508.38,828.68c0,10.76,8.77,19.42,19.42,19.42s19.29-8.66,19.29-19.42-8.54-19.53-19.29-19.53-19.42,8.66-19.42,19.53Z"/>
    <path class="st0" d="M1597.93,787.17c0-2.1,1.63-3.74,3.74-3.74s3.74,1.63,3.74,3.74v25.15c3.97-6.2,11.22-10.41,19.29-10.41,14.85,0,26.78,11.93,26.78,26.78s-11.92,26.78-26.78,26.78-26.78-11.92-26.78-26.78v-41.52ZM1605.41,828.68c0,10.76,8.66,19.42,19.29,19.42s19.42-8.66,19.42-19.42-8.66-19.53-19.42-19.53-19.29,8.66-19.29,19.53Z"/>
    <path class="st0" d="M1660.91,805.53c0-1.99,1.64-3.63,3.75-3.63,1.87,0,3.62,1.63,3.62,3.63v26.55c0,8.77,7.13,16.02,15.9,16.02s16.02-7.25,16.02-16.02v-26.55c0-1.99,1.64-3.63,3.63-3.63s3.62,1.63,3.62,3.63v26.55c0,12.74-10.41,23.39-23.27,23.39s-23.27-10.52-23.27-23.39v-26.55ZM1684.19,873.7c6.9,0,12.98-3.62,16.37-9.12.82-1.17,1.99-1.75,3.28-1.75.58,0,1.28.24,1.87.58,1.76,1.17,2.23,3.39,1.17,5.15-4.68,7.49-13.21,12.39-22.68,12.39s-17.78-4.91-22.57-12.39c-1.17-1.76-.58-3.98,1.17-5.15.58-.35,1.17-.58,1.87-.58,1.16,0,2.45.58,3.27,1.75,3.39,5.5,9.47,9.12,16.26,9.12Z"/>
    <path class="st0" d="M1756.96,783.43c2.22,0,3.97,1.87,3.97,4.21v63.85c0,2.1-1.75,3.98-3.97,3.98s-3.97-1.87-3.97-3.98v-63.85c0-2.34,1.76-4.21,3.97-4.21Z"/>
    <path class="st0" d="M1796.92,801.9c12.75,0,23.28,10.41,23.27,23.27v26.55c0,2.1-1.75,3.74-3.74,3.74s-3.74-1.63-3.74-3.74v-26.55c0-8.66-7.13-15.9-15.79-15.9s-16.02,7.25-16.02,15.9v26.55c0,2.1-1.64,3.74-3.63,3.74-2.1,0-3.74-1.63-3.74-3.74v-26.55c0-12.86,10.52-23.27,23.39-23.27Z"/>
    <path class="st0" d="M1839.46,833.58l27.71-30.52c.82-.82,1.76-1.17,2.81-1.17.93,0,1.75.35,2.45,1.05,1.4,1.4,1.4,3.74.11,5.14l-15.44,17.08,17.31,24.56c1.05,1.76.7,3.97-.94,5.15-.7.35-1.4.58-1.99.58-1.28,0-2.45-.58-3.16-1.63l-16.49-23.27-12.39,13.8v7.37c0,2.1-1.53,3.74-3.51,3.74-2.1,0-3.74-1.63-3.74-3.74v-64.55c0-2.1,1.63-3.74,3.74-3.74,1.99,0,3.51,1.63,3.51,3.74v46.41Z"/>
  </g>
</svg>